<svg width="35" height="35" viewBox="0 0 35 35" fill="none" xmlns="http://www.w3.org/2000/svg">
<path d="M17.5 35C27.165 35 35 27.165 35 17.5C35 7.83502 27.165 0 17.5 0C7.83502 0 0 7.83502 0 17.5C0 27.165 7.83502 35 17.5 35Z" fill="#F4F5F6"/>
<path d="M24.7491 13.7096V13.005C24.7491 9.13623 21.7274 6 18 6C14.2726 6 11.2509 9.13623 11.2509 13.005V13.7096C11.2509 14.5552 11.0097 15.3818 10.5578 16.0854L9.45036 17.8095C8.43882 19.3843 9.21105 21.5249 10.9704 22.0229C15.5727 23.3257 20.4273 23.3257 25.0296 22.0229C26.789 21.5249 27.5612 19.3843 26.5496 17.8095L25.4422 16.0854C24.9903 15.3818 24.7491 14.5552 24.7491 13.7096Z" stroke="#202020" stroke-width="1.5"/>
<path d="M13.5 23C14.155 24.7478 15.9225 26 18 26C20.0775 26 21.845 24.7478 22.5 23" stroke="#202020" stroke-width="1.5" stroke-linecap="round"/>
<path d="M23.4639 12.8328C25.172 12.8328 26.5566 11.4481 26.5566 9.73999C26.5566 8.0319 25.172 6.64722 23.4639 6.64722C21.7558 6.64722 20.3711 8.0319 20.3711 9.73999C20.3711 11.4481 21.7558 12.8328 23.4639 12.8328Z" fill="#BC2200"/>
</svg>
